Coordinates
version=1
nRows=5
nColumns=40
inDegrees=yes

Units are S.I. units (second, meters, Newtons, ...)
If the header above contains a line with 'inDegrees', this indicates whether rotational values are in degrees (yes) or radians (no).

endheader
time	pelvis_tilt	pelvis_list	pelvis_rotation	pelvis_tx	pelvis_ty	pelvis_tz	hip_flexion_r	hip_adduction_r	hip_rotation_r	knee_angle_r	knee_angle_r_beta	ankle_angle_r	subtalar_angle_r	mtp_angle_r	hip_flexion_l	hip_adduction_l	hip_rotation_l	knee_angle_l	knee_angle_l_beta	ankle_angle_l	subtalar_angle_l	mtp_angle_l	lumbar_extension	lumbar_bending	lumbar_rotation	arm_flex_r	arm_add_r	arm_rot_r	elbow_flex_r	pro_sup_r	wrist_flex_r	wrist_dev_r	arm_flex_l	arm_add_l	arm_rot_l	elbow_flex_l	pro_sup_l	wrist_flex_l	wrist_dev_l
      7.86700000	     24.64969700	      3.83542053	      5.28638505	      0.02272632	      1.33397479	     -0.00564526	      3.82870548	    -10.19572957	    -18.10435351	     39.97317094	      0.69766345	    -18.52156993	    -22.40500628	      0.00000000	     46.58837064	      6.57162210	      7.25001987	     98.09755186	      1.71212527	    -22.29683270	    -30.28678455	      0.00000000	    -76.97233164	      5.98465785	      1.52807382	     37.20702100	    -16.37373002	    -17.18549594	     50.84801590	     43.29593151	      0.00000000	      0.00000000	     51.69445138	     11.77622274	    -19.56973627	     45.88588763	     45.39518133	      0.00000000	      0.00000000
      7.88300000	     24.88468321	      3.34792147	      5.20468240	      0.02281904	      1.33503134	     -0.00566733	      4.84691761	    -10.13352339	    -18.32516781	     44.26909397	      0.77264145	    -17.81397904	    -22.67439551	      0.00000000	     45.68128834	      6.08159978	      7.18903846	     94.62537482	      1.65152435	    -22.29524450	    -30.41504389	      0.00000000	    -77.43639027	      6.14751434	      2.01192683	     37.55742858	    -16.50884163	    -17.05037972	     50.84650854	     43.14188130	      0.00000000	      0.00000000	     51.84523702	     11.92553779	    -19.76575740	     46.01689606	     45.44788113	      0.00000000	      0.00000000
      7.90000000	     25.12509128	      2.79812381	      5.17185993	      0.02289475	      1.33615518	     -0.00576565	      6.11906868	    -10.14445108	    -18.56352335	     48.83655790	      0.85235873	    -17.24296616	    -22.94668139	      0.00000000	     44.25089632	      5.46422671	      7.16849238	     90.70720654	      1.58313941	    -22.30153109	    -30.67570789	      0.00000000	    -77.86814127	      6.37178937	      2.56660472	     37.93676884	    -16.64112996	    -16.94668335	     50.79139177	     43.04761365	      0.00000000	      0.00000000	     52.02616828	     12.04112242	    -19.95701718	     46.08131321	     45.49665153	      0.00000000	      0.00000000
      7.91700000	     25.23722183	      2.34228436	      4.99262635	      0.02302034	      1.33709000	     -0.00588185	      7.85755968	    -10.43641641	    -18.46187737	     53.77840311	      0.93861020	    -16.66802857	    -22.71511493	      0.00000000	     42.37075488	      4.70815945	      6.81153844	     86.27518851	      1.50578610	    -22.38534527	    -31.41389653	      0.00000000	    -78.08135759	      6.44551625	      2.99466486	     38.30372139	    -16.64679042	    -16.80499309	     50.66170534	     42.84775142	      0.00000000	      0.00000000	     52.16300196	     12.07920845	    -20.24555796	     46.07376875	     45.73584939	      0.00000000	      0.00000000
      7.93300000	     25.45580448	      1.74266181	      4.92952779	      0.02325539	      1.33808165	     -0.00616079	      9.68911930	    -10.67942378	    -18.50698463	     58.91382277	      1.02824018	    -16.26334392	    -22.81198293	      0.00000000	     39.87469947	      3.82322710	      6.66572918	     81.37944204	      1.42033921	    -22.26136153	    -31.79728741	      0.00000000	    -78.34045552	      6.68070062	      3.56141771	     38.67673712	    -16.67056076	    -16.65842993	     50.46344420	     42.76785968	      0.00000000	      0.00000000	     52.30091654	     12.10623812	    -20.56845217	     45.98942127	     45.97142606	      0.00000000	      0.00000000
